<svg height="480pt" viewBox="0 0 480.11987 480" width="480pt" xmlns="http://www.w3.org/2000/svg"><path d="m152 240.058594c79.527344 0 144-25.070313 144-56v-120c0 30.929687-64.472656 56-144 56s-144-25.070313-144-56v120c0 30.929687 64.472656 56 144 56zm0 0" fill="#9bc9ff"/><path d="m152 240.058594c-79.527344 0-144-25.070313-144-56v112c0 30.929687 64.472656 56 144 56s144-25.070313 144-56v-112c0 30.929687-64.472656 56-144 56zm0 0" fill="#57a4ff"/><path d="m152 352.058594c-79.527344 0-144-25.070313-144-56v120c0 30.929687 64.472656 56 144 56s144-25.070313 144-56v-120c0 30.929687-64.472656 56-144 56zm0 0" fill="#2488ff"/><path d="m296 64.058594c0-30.925782-64.472656-56-144-56s-144 25.074218-144 56c0 30.929687 64.472656 56 144 56s144-25.070313 144-56zm0 0" fill="#bddbff"/><path d="m296 64.058594c0 30.960937-64.480469 56-144 56s-144-25.039063-144-56c-.007812-2.738282.507812-5.453125 1.519531-8 9.839844 27.121094 69.921875 48 142.480469 48s132.640625-20.878906 142.480469-48c1.011719 2.546875 1.527343 5.261718 1.519531 8zm0 0" fill="#57a4ff"/><g fill="#b2fa09"><path d="m472 240.058594c0 13.257812-10.746094 24-24 24s-24-10.742188-24-24c0-13.253906 10.746094-24 24-24s24 10.746094 24 24zm0 0"/><path d="m472 448.058594c0 13.257812-10.746094 24-24 24s-24-10.742188-24-24c0-13.253906 10.746094-24 24-24s24 10.746094 24 24zm0 0"/><path d="m472 40.058594c0 13.257812-10.746094 24-24 24s-24-10.742188-24-24c0-13.253906 10.746094-24 24-24s24 10.746094 24 24zm0 0"/></g><path d="m296 168.058594v16c0 30.960937-64.480469 56-144 56s-144-25.039063-144-56v-16c0 30.960937 64.480469 56 144 56s144-25.039063 144-56zm0 0" fill="#2488ff"/><path d="m296 280.058594v16c0 30.960937-64.480469 56-144 56s-144-25.039063-144-56v-16c0 30.960937 64.480469 56 144 56s144-25.039063 144-56zm0 0" fill="#006df0"/><path d="m296 400.058594v16c0 30.960937-64.480469 56-144 56s-144-25.039063-144-56v-16c0 30.960937 64.480469 56 144 56s144-25.039063 144-56zm0 0" fill="#006df0"/><path d="m304 248.058594h113.136719c4.027343 15.605468 19.03125 25.777344 35.015625 23.746094s27.96875-15.628907 27.96875-31.746094c0-16.113282-11.984375-29.714844-27.96875-31.742188-15.984375-2.03125-30.988282 8.140625-35.015625 23.742188h-113.136719v-80h40c13.253906 0 24-10.742188 24-24v-72c0-4.417969 3.582031-8 8-8h41.136719c4.027343 15.605468 19.03125 25.777344 35.015625 23.746094s27.96875-15.628907 27.96875-31.746094c0-16.113282-11.984375-29.714844-27.96875-31.742188-15.984375-2.03125-30.988282 8.140625-35.015625 23.742188h-41.136719c-13.253906 0-24 10.746094-24 24v72c0 4.417968-3.582031 8-8 8h-40v-72c0-36.488282-65.34375-64.0000002-152-64.0000002s-152 27.5117182-152 64.0000002v352c0 36.488281 65.34375 64 152 64s152-27.511719 152-64v-40h40c4.417969 0 8 3.582031 8 8v48c0 13.257812 10.746094 24 24 24h41.136719c4.027343 15.605468 19.03125 25.777344 35.015625 23.746094s27.96875-15.628907 27.96875-31.746094c0-16.113282-11.984375-29.714844-27.96875-31.742188-15.984375-2.03125-30.988282 8.140625-35.015625 23.742188h-41.136719c-4.417969 0-8-3.582032-8-8v-48c0-13.253906-10.746094-24-24-24h-40zm144-24c8.835938 0 16 7.164062 16 16 0 8.839844-7.164062 16-16 16s-16-7.160156-16-16c0-8.835938 7.164062-16 16-16zm0-200c8.835938 0 16 7.164062 16 16 0 8.839844-7.164062 16-16 16s-16-7.160156-16-16c0-8.835938 7.164062-16 16-16zm0 408c8.835938 0 16 7.164062 16 16 0 8.839844-7.164062 16-16 16s-16-7.160156-16-16c0-8.835938 7.164062-16 16-16zm-296-416c80.152344 0 136 25.296875 136 48 0 22.707031-55.847656 48-136 48s-136-25.292969-136-48c0-22.703125 55.847656-48 136-48zm-136 77.394531c24.457031 20.878906 74.863281 34.605469 136 34.605469s111.542969-13.726563 136-34.605469v90.605469c0 22.707031-55.847656 48-136 48s-136-25.292969-136-48zm136 370.605469c-80.152344 0-136-25.292969-136-48v-90.605469c24.457031 20.878906 74.863281 34.605469 136 34.605469s111.542969-13.726563 136-34.605469v90.605469c0 22.707031-55.847656 48-136 48zm0-120c-80.152344 0-136-25.292969-136-48v-82.605469c24.457031 20.878906 74.863281 34.605469 136 34.605469s111.542969-13.726563 136-34.605469v82.605469c0 22.707031-55.847656 48-136 48zm0 0"/><path d="m440 32.058594h16v16h-16zm0 0"/><path d="m440 232.058594h16v16h-16zm0 0"/><path d="m440 440.058594h16v16h-16zm0 0"/></svg>